<svg xmlns="http://www.w3.org/2000/svg" xmlns:xlink="http://www.w3.org/1999/xlink" font-size="10px" font-family="sans-serif" fill="none" stroke="none" stroke-width="1.5" width="430" height="225">
     <g transform="translate(20,5)">
          <path d="M0.0,75.70676020278992L4.040404040404041,121.55026033091879L8.080808080808081,120.92630535824098L12.121212121212123,78.92411244478093L16.161616161616163,43.92734536858359L20.2020202020202,89.43607602769465L24.242424242424246,55.6784119000412L28.28282828282828,57.82994353891985L32.323232323232325,21.996892184951975L36.36363636363637,54.731574321035424L40.4040404040404,51.18305741299497L44.44444444444445,28.647685594500388L48.48484848484849,47.05095693252295L52.52525252525253,31.16005877882182L56.56565656565656,55.40495265627081L60.60606060606061,67.26353086236568L64.64646464646465,56.39719229640278L68.68686868686869,21.902933805097348L72.72727272727273,45.492979612114965L76.76767676767678,46.20903408813041L80.8080808080808,48.31387976812053L84.84848484848484,33.542427762828964L88.8888888888889,15.021101657096949L92.92929292929294,64.44670320177951L96.96969696969698,74.54253486814326L101.01010101010101,51.5983178054654L105.05050505050507,62.42162127177545L109.09090909090911,74.55472670478851L113.13131313131312,108.13537815078296L117.17171717171718,72.46370148068932L121.21212121212122,84.97325029217066L125.25252525252526,101.1662224145408L129.2929292929293,120.80890143570852L133.33333333333334,138.11801700681156L137.37373737373738,132.2890928467994L141.41414141414143,136.95247438980948L145.45454545454547,133.01161966766102L149.4949494949495,143.37560809494076L153.53535353535355,138.54377896029393L157.5757575757576,135.57962715148804L161.6161616161616,140.4563756771798L165.65656565656568,158.8970596094891L169.6969696969697,170.92809506590353L173.73737373737373,152.1177039765746L177.7777777777778,165.4517706658553L181.8181818181818,140.71558770490944L185.85858585858588,200.0L189.8989898989899,199.6284505302032L193.93939393939397,143.7308639182928L197.97979797979798,198.64454293639548L202.02020202020202,181.0876521792963L206.06060606060606,168.99407347443073L210.10101010101013,150.4573425414247L214.14141414141415,194.12631025953405L218.18181818181822,173.52270564418902L222.22222222222223,149.9234409062218L226.26262626262624,141.88716533425927L230.3030303030303,127.33102361013073L234.34343434343435,133.40560203379707L238.3838383838384,129.14369014653784L242.42424242424244,93.31529022367818L246.4646464646465,117.59380487079663L250.50505050505052,126.32663870951501L254.5454545454546,135.13387321714512L258.5858585858586,61.080028414472594L262.62626262626264,93.15540273802006L266.6666666666667,101.85369926356755L270.7070707070707,65.54223694236848L274.74747474747477,101.50957293500808L278.7878787878788,65.21568486178103L282.82828282828285,60.86030153909152L286.8686868686869,82.62997318775678L290.90909090909093,35.26136878561934L294.949494949495,23.820319468445632L298.989898989899,48.65647005260789L303.030303030303,34.987272814728215L307.0707070707071,3.756870931750001L311.11111111111114,39.14273817534473L315.1515151515152,0.0L319.1919191919192,51.10768605005978L323.2323232323232,54.061558327362604L327.27272727272725,65.95227221308048L331.31313131313135,41.07183639417963L335.3535353535354,68.26115473099298L339.3939393939394,67.3966043875505L343.4343434343434,14.556842140371572L347.47474747474746,73.3284352263756L351.51515151515156,84.22308561511367L355.5555555555556,94.8838569790249L359.5959595959596,78.05915966817003L363.6363636363636,73.02644567015544L367.67676767676767,64.38882449538357L371.71717171717177,103.3309043725697L375.75757575757575,77.6091492154983L379.7979797979798,100.53772905285263L383.83838383838383,102.80457577238559L387.87878787878793,101.96451410634005L391.919191919192,90.28883830832287L395.95959595959596,114.79988671003444L400.0,168.5207649487423" fill="none" stroke="rgb(31,119,180)" stroke-width="5"/>
     </g>
     <g transform="translate(20,5)">
          <path d="M0.0,75.70676020278992L4.040404040404041,121.55026033091879L8.080808080808081,120.92630535824098L12.121212121212123,78.92411244478093L16.161616161616163,43.92734536858359L20.2020202020202,89.43607602769465L24.242424242424246,55.6784119000412L28.28282828282828,57.82994353891985L32.323232323232325,21.996892184951975L36.36363636363637,54.731574321035424L40.4040404040404,51.18305741299497L44.44444444444445,28.647685594500388L48.48484848484849,47.05095693252295L52.52525252525253,31.16005877882182L56.56565656565656,55.40495265627081L60.60606060606061,67.26353086236568L64.64646464646465,56.39719229640278L68.68686868686869,21.902933805097348L72.72727272727273,45.492979612114965L76.76767676767678,46.20903408813041L80.8080808080808,48.31387976812053L84.84848484848484,33.542427762828964L88.8888888888889,15.021101657096949L92.92929292929294,64.44670320177951L96.96969696969698,74.54253486814326L101.01010101010101,51.5983178054654L105.05050505050507,62.42162127177545L109.09090909090911,74.55472670478851L113.13131313131312,108.13537815078296L117.17171717171718,72.46370148068932L121.21212121212122,84.97325029217066L125.25252525252526,101.1662224145408L129.2929292929293,120.80890143570852L133.33333333333334,138.11801700681156L137.37373737373738,132.2890928467994L141.41414141414143,136.95247438980948L145.45454545454547,133.01161966766102L149.4949494949495,143.37560809494076L153.53535353535355,138.54377896029393L157.5757575757576,135.57962715148804L161.6161616161616,140.4563756771798L165.65656565656568,158.8970596094891L169.6969696969697,170.92809506590353L173.73737373737373,152.1177039765746L177.7777777777778,165.4517706658553L181.8181818181818,140.71558770490944L185.85858585858588,200.0L189.8989898989899,199.6284505302032L193.93939393939397,143.7308639182928L197.97979797979798,198.64454293639548L202.02020202020202,181.0876521792963L206.06060606060606,168.99407347443073L210.10101010101013,150.4573425414247L214.14141414141415,194.12631025953405L218.18181818181822,173.52270564418902L222.22222222222223,149.9234409062218L226.26262626262624,141.88716533425927L230.3030303030303,127.33102361013073L234.34343434343435,133.40560203379707L238.3838383838384,129.14369014653784L242.42424242424244,93.31529022367818L246.4646464646465,117.59380487079663L250.50505050505052,126.32663870951501L254.5454545454546,135.13387321714512L258.5858585858586,61.080028414472594L262.62626262626264,93.15540273802006L266.6666666666667,101.85369926356755L270.7070707070707,65.54223694236848L274.74747474747477,101.50957293500808L278.7878787878788,65.21568486178103L282.82828282828285,60.86030153909152L286.8686868686869,82.62997318775678L290.90909090909093,35.26136878561934L294.949494949495,23.820319468445632L298.989898989899,48.65647005260789L303.030303030303,34.987272814728215L307.0707070707071,3.756870931750001L311.11111111111114,39.14273817534473L315.1515151515152,0.0L319.1919191919192,51.10768605005978L323.2323232323232,54.061558327362604L327.27272727272725,65.95227221308048L331.31313131313135,41.07183639417963L335.3535353535354,68.26115473099298L339.3939393939394,67.3966043875505L343.4343434343434,14.556842140371572L347.47474747474746,73.3284352263756L351.51515151515156,84.22308561511367L355.5555555555556,94.8838569790249L359.5959595959596,78.05915966817003L363.6363636363636,73.02644567015544L367.67676767676767,64.38882449538357L371.71717171717177,103.3309043725697L375.75757575757575,77.6091492154983L379.7979797979798,100.53772905285263L383.83838383838383,102.80457577238559L387.87878787878793,101.96451410634005L391.919191919192,90.28883830832287L395.95959595959596,114.79988671003444L400.0,168.5207649487423" fill="none" stroke="rgb(255,0,0)" stroke-width="1"/>
     </g>
</svg>
